<?xml version="1.0" encoding="utf-8"?>
<!-- Generator: Adobe Illustrator 23.0.0, SVG Export Plug-In . SVG Version: 6.00 Build 0)  -->
<svg version="1.1" id="Calque_1" xmlns="http://www.w3.org/2000/svg" xmlns:xlink="http://www.w3.org/1999/xlink" x="0px" y="0px"
	 viewBox="0 0 160 160" style="enable-background:new 0 0 160 160;" xml:space="preserve">
<style type="text/css">
	.st0{fill:#333333;stroke:#333333;stroke-width:0.5;stroke-miterlimit:10;}
</style>
<path class="st0" d="M159.9,6.6c0.9-4.7-2.6-7.3-6.9-6.5c-5.9,1.2-10.2,6.1-10.9,12c-0.1,1.1-0.2,2.2-0.2,3.4
	c-5.4,0-11.1-1.1-15.6-2.1c-1.4-2.9-3.6-5.5-6.3-6.6c-1.6-0.6-3.2-0.6-4,1.1c-0.7,1.6,1.2,3.7,2.3,4.6c1.9,1.7,4.4,2.7,7.1,3.3
	c1.2,3.7,1.4,8,2.2,11.7c0.1,0.6,0.2,1.1,0.3,1.7c-0.9-0.2-1.8-0.3-2.7-0.5c-6.9-1.3-14.1-2.1-20.9-3.9c-4.3-1.1-7.9-2.8-10.7-6.2
	c-2-2.5-3-5.8-2.3-8.8c2.5-0.9,5.2-1.3,8-0.7c0.1,0,0.2,0,0.4,0c2.2,1.4,3.7,3.4,2.3,5.9c-0.3,0.5-0.2,1.6,0.9,2.1
	c1,0.4,2.1-0.7,2.3-1.1c2.6-4.4-2.7-7.7-6.4-9c-1.8-0.6-3.6-1-5.5-1.1c2.7-2.8,7.4-3.2,11-2.5c4.2,0.8,7.4,3.7,9,7.6
	c0.4,1,3,2.7,2.1,0.6c-2-4.7-5.7-8.4-10.4-10.3c-4.7-1.9-12.3-1.5-15,3.5c-0.2,0.4-0.4,0.8-0.5,1.1c-1.7,0.1-3.4,0.4-5,0.8
	c-0.2,0-0.3,0.1-0.5,0.2c-1.3-0.9-2.7-1.5-3.9-2C75.1,3.3,70,3.4,65.3,4.6c-2.5,0.7-4.7,1.8-6.9,3.2c0.2-1.2,0.7-2.3,1.5-3.2
	c0.3-0.4,0.6-1.5-0.7-1.9c-0.9-0.3-2.2,0.6-2.5,1c-1.6,1.8-2,4-1.6,6.1c-1.3,0.8-2.7,1.6-4.1,2.2c-3,1.4-7.3,1.9-9.8-0.5
	c-2.4-2.3-2.4-6.6-0.2-9c0.3-0.4,0.6-1.5-0.7-1.9c-0.9-0.3-2.2,0.6-2.5,1c-2.3,2.6-2.2,6-0.6,8.7c2.9,6.4,10,8,16.5,6.7
	c1.5-0.3,3-0.9,4.4-1.5c3.5,3.9,9.2,4.8,14.5,3.6c3.6-0.8,6.9-2.8,10.3-4.8c0.1,0.3,0.4,0.7,0.9,0.9c1,0.4,2.1-0.7,2.3-1.1
	c0.4-0.7,0.6-1.4,0.7-2c0.6-0.3,1.2-0.6,1.8-0.9c0.3,2.9,1.6,5.7,3.4,8c3.7,5,8.6,7.4,14.5,8.9c5.3,1.4,10.9,2,16.3,3
	c1.9,0.4,3.8,0.7,5.6,1.1c0.7,3.6,1.4,7.2,2,10.8c1,5.9,1.8,11.8,4.2,17.4c2.2,5,8.4,10.8,14.4,11.7c-0.2,0.5-0.5,1-0.8,1.5
	c-0.6,0.1-1.3,0.3-2,0.7c-0.4,0.2-1.5,1.4-1.1,2.3c0.2,0.5,0.5,0.8,0.9,0.9c-2,3.3-4,6.7-4.8,10.3c-1.1,5.3-0.2,11,3.6,14.5
	c-0.7,1.4-1.2,2.9-1.5,4.4c-1.4,6.5,0.2,13.6,6.7,16.5c2.7,1.6,6.1,1.7,8.7-0.6c0.4-0.3,1.2-1.6,1-2.5c-0.4-1.2-1.5-1-1.9-0.7
	c-2.4,2.2-6.7,2.2-9-0.2c-2.4-2.5-1.9-6.8-0.5-9.8c0.6-1.4,1.4-2.8,2.2-4.1c2.1,0.4,4.3,0,6.1-1.6c0.4-0.3,1.2-1.6,1-2.5
	c-0.4-1.2-1.5-1-1.9-0.7c-0.9,0.8-2,1.3-3.2,1.5c1.3-2.2,2.5-4.4,3.2-6.9c1.3-4.8,1.3-9.8-0.3-14.5c-0.4-1.2-1.1-2.7-2-3.9
	c0.1-0.2,0.1-0.3,0.2-0.5c0.4-1.6,0.7-3.2,0.8-4.8c1.2-0.6,2.3-1.4,3.4-2.7c3.2-4.1,2.4-10.4,0.4-14.8c-1.9-4.1-5.6-7.4-9.8-9.1
	c-0.8-0.3-0.5,0.8-0.3,1.1c0.4,0.7,1,1.4,1.7,1.7c6.8,2.9,9.5,10.8,6.4,17.4c-0.5,1-1,1.7-1.7,2.3c-0.2-1.9-0.5-3.8-1.1-5.6
	c-1.2-3.6-4.6-9-9-6.4c-0.4,0.2-1.5,1.3-1.1,2.3c0.4,1.1,1.6,1.2,2.1,0.9c2.5-1.5,4.5,0.1,5.9,2.3c0,0.1,0,0.2,0,0.4
	c0.6,2.8,0.2,5.4-0.7,7.9c-3.8,0.4-8.2-1.6-10.8-4c-4.9-4.6-5.4-13-6.4-19.2c-0.7-4.4-1.6-8.8-2.4-13.2c2.4,0.5,4.8,0.9,7.1,1.4
	c1.5,0.3,3,0.5,4.5,0.7c0.6,0.1,1.5,0.3,2.4,0.5c0.7,2.5,1.6,4.9,3.2,7c0.9,1.2,2.5,2.6,4.1,2.2c2-0.5,1.6-2.8,1.1-4.2
	c-1.1-2.9-3.7-5.1-6.6-6.5c-0.3-1.6-0.6-3.2-0.8-4.9c-0.5-3.3-1.1-6.8-1.2-10.3c1.4,0,2.7-0.1,4-0.2
	C154.4,17.4,158.7,12.4,159.9,6.6z M118.5,10.3c0.4-1.7,2.7-0.8,3.5-0.2c1,0.7,1.7,1.8,2.3,2.9C122.3,12.6,118.2,11.6,118.5,10.3z
	 M92.2,7.3c0.9,0,1.8,0.1,2.6,0.2c0.2,0,0.4,0.1,0.5,0.1c-1.2,0.1-2.4,0.2-3.6,0.5C91.9,7.8,92,7.5,92.2,7.3z M50.2,15.9
	c-2.5,0.4-4.7-0.2-6.6-1.5c2.9,0.5,6.1,0.1,8.6-0.6c1.4-0.4,2.6-1,3.9-1.6c0,0.1,0.1,0.1,0.1,0.2c0.2,0.5,0.5,0.9,0.8,1.4
	C54.8,14.7,52.6,15.5,50.2,15.9z M58.5,10.7c2.5-1.5,4.9-3.2,7.6-4.3c3-1.2,6.6-1.6,9.8-1.1c0.2,0,0.4,0.1,0.5,0.1
	c-5.1,0.3-9.9,2.5-14.3,5.2c-1,0.6-1.9,1.2-2.9,1.8C58.9,11.9,58.7,11.4,58.5,10.7z M80.3,7.1c0.1,0,0.2,0,0.4,0
	c0.3,0.2,0.6,0.4,0.8,0.6c-4,1.7-7.5,4.6-11.5,6.4c-2.8,1.3-6.7,1.9-9.3,0C67,10.5,73,5.5,80.3,7.1z M83.5,11.3
	c-0.8,0.5-1.6,0.9-2.4,1.4c-3.8,2.4-7.5,4.5-12,5.2c-2.5,0.4-4.7-0.2-6.6-1.5c2.9,0.5,6.1,0.1,8.6-0.6c4.4-1.3,8-4.4,12-6.4
	C83.4,10,83.5,10.7,83.5,11.3z M88.5,9c-0.7,0.3-1.4,0.5-2.1,0.9c-0.2-0.5-0.6-1-1-1.5c1.1-0.4,2.2-0.7,3.3-0.9
	C88.6,8,88.6,8.5,88.5,9z M146.2,107.9c-0.7,2.5-1.1,5.7-0.6,8.6c-1.3-1.8-1.9-4.1-1.5-6.6c0.4-2.4,1.2-4.6,2.2-6.7
	c0.4,0.3,0.9,0.5,1.4,0.8c0.1,0,0.1,0.1,0.2,0.1C147.2,105.2,146.6,106.5,146.2,107.9z M154.7,84.1c0.5,3.2,0.1,6.8-1.1,9.8
	c-1.1,2.7-2.8,5.1-4.3,7.6c-0.6-0.2-1.2-0.4-1.7-0.7c0.6-1,1.2-1.9,1.8-2.9c2.8-4.3,5-9.2,5.2-14.3C154.6,83.8,154.7,84,154.7,84.1z
	 M153,79.7c1.5,7.3-3.5,13.3-7,19.6c-1.9-2.6-1.3-6.5,0-9.3c1.8-4,4.7-7.5,6.4-11.5c0.2,0.3,0.4,0.5,0.6,0.8
	C152.9,79.5,153,79.6,153,79.7z M152.5,64.7c0,0.2,0.1,0.4,0.1,0.5c0.1,0.9,0.2,1.8,0.2,2.7c-0.3,0.1-0.5,0.3-0.8,0.4
	C152.3,67.1,152.4,65.9,152.5,64.7z M150.9,71.8c0.5,0,1-0.1,1.5-0.2c-0.2,1-0.5,2-0.8,3c-0.5-0.4-0.9-0.7-1.5-1
	C150.5,73,150.7,72.4,150.9,71.8z M150.6,77c-2.1,4-5.2,7.6-6.4,12c-0.7,2.5-1.1,5.7-0.6,8.6c-1.3-1.8-1.9-4.1-1.5-6.6
	c0.7-4.5,2.8-8.2,5.2-12c0.5-0.8,1-1.6,1.4-2.4C149.4,76.5,150,76.7,150.6,77z M150.9,40.2c-0.2,1.9-2.1,1-2.7,0c-0.5-0.9-0.8-2-1-3
	c-0.1-0.5-0.2-1-0.4-1.5C149.1,36.8,151.1,38.3,150.9,40.2z M140.8,31.6c-3.6-0.7-7.2-1.3-10.7-1.9c-0.7-3.6-1.3-7.2-1.9-10.9
	c-0.2-0.8-0.4-1.7-0.7-2.5c1.5,0.3,3,0.5,4.4,0.7c3.3,0.5,6.7,1.1,10.1,1.2c0.2,3.5,0.8,7,1.4,10.3c0.2,1.3,0.4,2.6,0.7,3.9
	C142.9,32.1,141.8,31.8,140.8,31.6z M145.2,11.2c0.9-2.9,3.5-5.4,6.1-6.9c1.5-0.9,3.3-1.3,5-1.5c0.7-0.1,1.3,0.3,1.2-0.1
	c0.2,1-0.2,2.2-0.4,3.2c-1.7,6.6-6.7,9.1-12.7,9.7C144.5,14,144.8,12.5,145.2,11.2z M153.4,126.2c-0.8-0.1-1.7-0.2-1.7,0
	c0,0,1,32.2,1,33.4c0.2,0.5,0.8,0.4,0.9,0c0-1.2,1-33,1-33C154.5,126.5,154.2,126.3,153.4,126.2z M33.4,5.6c0,0-31.8,1-33,1
	c-0.4,0.1-0.5,0.7,0,0.9c1.2,0,33.4,1,33.4,1c0.3,0,0.2-0.9,0-1.7C33.7,5.8,33.5,5.6,33.4,5.6z"/>
</svg>
