<?xml version="1.0" encoding="utf-8"?>
<!-- Generator: Adobe Illustrator 23.0.0, SVG Export Plug-In . SVG Version: 6.00 Build 0)  -->
<svg version="1.1" id="Calque_1" xmlns="http://www.w3.org/2000/svg" xmlns:xlink="http://www.w3.org/1999/xlink" x="0px" y="0px"
	 viewBox="0 0 90 45" style="enable-background:new 0 0 90 45;" xml:space="preserve">
<style type="text/css">
	.st0{fill-rule:evenodd;clip-rule:evenodd;}
</style>
<path class="st0" d="M41.5,43.5c1,1,2.3,1.5,3.6,1.5c1.3,0,2.7-0.5,3.6-1.5C58,34.2,82.2,9.7,89.6,2.2c0.4-0.4,0.5-0.9,0.3-1.4
	S89.2,0,88.7,0c-4.8,0-13.8,0-17.1,0c-0.8,0-1.6,0.3-2.2,0.9c-4.2,3.9-21.3,19.7-24,22.4c-0.2,0.2-0.6,0.2-0.8,0
	c-2.8-2.6-19.9-18.5-24-22.4C20,0.4,19.2,0,18.4,0C15.1,0,6.1,0,1.3,0c-0.5,0-1,0.3-1.2,0.8S0,1.8,0.4,2.2
	C8,9.7,32.2,34.2,41.5,43.5z"/>
</svg>
