<?xml version="1.0" encoding="utf-8"?>
<!-- Generator: Adobe Illustrator 23.0.0, SVG Export Plug-In . SVG Version: 6.00 Build 0)  -->
<svg version="1.1" id="Calque_1" xmlns="http://www.w3.org/2000/svg" xmlns:xlink="http://www.w3.org/1999/xlink" x="0px" y="0px"
	 viewBox="0 0 202 15" style="enable-background:new 0 0 202 15;" xml:space="preserve">
<style type="text/css">
	.st0{fill:#333333;stroke:#333333;stroke-miterlimit:10;}
</style>
<g>
	<g>
		<g>
			<g>
				<g>
					<path class="st0" d="M115.4,9c-1.5,1.2-3.4,0.1-4.5-0.8c-1.1-0.9-2.5-1.5-3.9-1.5c-5-0.2-5.5,5.6-5.5,5.6s3.2-5.5,6.9-3.6
						c0,0,2.6,1.2,3.1,4.7c0,0,0.8-1.7-0.2-3.2C112.3,10.7,113.9,11.1,115.4,9z"/>
					<path class="st0" d="M85.6,9c1.5,1.2,3.4,0.1,4.5-0.8c1.1-0.9,2.5-1.5,3.9-1.5c5-0.2,5.5,5.6,5.5,5.6s-3.2-5.5-6.9-3.6
						c0,0-2.6,1.2-3.1,4.7c0,0-0.8-1.7,0.2-3.2C88.6,10.7,87.1,11.1,85.6,9z"/>
				</g>
				<path class="st0" d="M105.1,5.5c-1.8-0.3-3.4,1.9-4.3,3.7c-0.1,0.2-0.2,0.4-0.3,0.6c-0.1-0.2-0.2-0.4-0.3-0.6
					c-1-1.8-2.6-4-4.3-3.7c1.4-2.2,3.5-1.1,4.6,2.5C101.6,4.5,103.8,3.3,105.1,5.5z"/>
				<path class="st0" d="M99.8,3.4c-0.2-1.1,0.7-2.6,0.7-2.6s0.9,1.5,0.7,2.6C101,4.2,100,4.2,99.8,3.4z"/>
			</g>
		</g>
		<g>
			<g>
				<path class="st0" d="M115.4,12.5c10,1.5,20.4,1.6,30.4,0.8c4.1-0.3,8.2-0.8,12.2-1.6c4.3-0.8,8.4-2.1,12.5-3.5
					c7.1-2.3,14.6-4.1,22-3.7c2.5,0.1,5.6,0.3,7.9,1.6c0.4,0.2,0.7-0.4,0.3-0.6c-1.8-1-4-1.3-6-1.5c-6.4-0.7-13,0.4-19.2,2
					c-4.4,1.2-8.7,2.9-13.1,4.1c-4.2,1.1-8.4,1.8-12.7,2.3c-7.5,0.8-15,1-22.5,0.6c-3.9-0.2-8-0.5-11.8-1
					C115.2,11.8,115,12.4,115.4,12.5L115.4,12.5z"/>
			</g>
			<g>
				<path class="st0" d="M86.4,11.9c-10.2,1.5-20.9,1.6-31.2,0.7c-4.3-0.4-8.5-1-12.7-1.9c-4.4-0.9-8.5-2.5-12.8-3.8
					C23,4.9,15.9,3.4,8.8,3.8C6.4,4,3.4,4.3,1.2,5.5c-0.4,0.2,0,0.8,0.3,0.6c1.8-1,4.2-1.3,6.3-1.5C14.6,3.9,21.5,5.2,28,7.1
					c4.4,1.3,8.6,2.9,13,3.9c4,0.9,8.1,1.6,12.2,2c7.4,0.8,14.8,0.8,22.2,0.5c3.7-0.2,7.5-0.5,11.2-1C87,12.5,86.8,11.8,86.4,11.9
					L86.4,11.9z"/>
			</g>
		</g>
	</g>
</g>
</svg>
